<?xml version="1.0" encoding="UTF-8"?>
<svg version="1.1" xmlns="http://www.w3.org/2000/svg" width="68" height="67">
<path d="M0 0 C6.99965831 5.86766609 11.85574884 11.78699107 12.7265625 21.07421875 C13.26683996 31.11635705 11.82854099 39.9803306 5.6484375 48.23046875 C0.40687346 53.92886635 -6.58798252 57.72492331 -14.33203125 58.390625 C-25.32201201 58.83958498 -33.58020848 57.51377574 -42.1484375 49.9609375 C-49.62424395 42.14655286 -51.33744051 34.49173103 -51.29516602 23.95996094 C-51.01101635 15.11773178 -47.93077639 7.7185731 -41.4296875 1.58203125 C-29.05107254 -7.72251525 -12.88076035 -9.00919278 0 0 Z M-39.7421875 8.08203125 C-39.7421875 8.74203125 -39.7421875 9.40203125 -39.7421875 10.08203125 C-26.2121875 10.08203125 -12.6821875 10.08203125 1.2578125 10.08203125 C-3.66111247 3.93337504 -8.07839516 0.67966691 -16.00390625 -0.3359375 C-25.67339426 -0.57177867 -32.72332952 1.23864472 -39.7421875 8.08203125 Z M-40.7421875 10.08203125 C-45.52449779 17.64832931 -46.95708102 24.17652739 -45.7421875 33.08203125 C-44.78946054 36.36579574 -43.4997235 39.1569014 -41.7421875 42.08203125 C-41.2059375 42.98953125 -40.6696875 43.89703125 -40.1171875 44.83203125 C-33.38986609 51.20528311 -24.59032658 53.59682246 -15.5 53.48828125 C-8.11088901 52.39980031 -1.36119146 47.82664052 3.109375 41.921875 C7.05482277 35.60110663 8.12255791 29.47788011 7.2578125 22.08203125 C6.52700125 18.96202936 5.68607388 15.95820898 4.2578125 13.08203125 C3.5978125 12.75203125 2.9378125 12.42203125 2.2578125 12.08203125 C2.2578125 20.00203125 2.2578125 27.92203125 2.2578125 36.08203125 C-4.0121875 36.08203125 -10.2821875 36.08203125 -16.7421875 36.08203125 C-16.7421875 37.40203125 -16.7421875 38.72203125 -16.7421875 40.08203125 C-15.0921875 40.08203125 -13.4421875 40.08203125 -11.7421875 40.08203125 C-11.7421875 41.07203125 -11.7421875 42.06203125 -11.7421875 43.08203125 C-16.6921875 43.08203125 -21.6421875 43.08203125 -26.7421875 43.08203125 C-26.4121875 42.42203125 -26.0821875 41.76203125 -25.7421875 41.08203125 C-23.6796875 40.45703125 -23.6796875 40.45703125 -21.7421875 40.08203125 C-21.7421875 38.76203125 -21.7421875 37.44203125 -21.7421875 36.08203125 C-27.6821875 36.08203125 -33.6221875 36.08203125 -39.7421875 36.08203125 C-39.7421875 27.50203125 -39.7421875 18.92203125 -39.7421875 10.08203125 C-40.0721875 10.08203125 -40.4021875 10.08203125 -40.7421875 10.08203125 Z M-21.7421875 18.08203125 C-21.4121875 20.06203125 -21.0821875 22.04203125 -20.7421875 24.08203125 C-18.7621875 24.08203125 -16.7821875 24.08203125 -14.7421875 24.08203125 C-14.4121875 22.10203125 -14.0821875 20.12203125 -13.7421875 18.08203125 C-16.3821875 18.08203125 -19.0221875 18.08203125 -21.7421875 18.08203125 Z " fill="#C28753" transform="translate(51.7421875,7.91796875)"/>
<path d="M0 0 C1.29422379 0.03541649 1.29422379 0.03541649 2.61459351 0.07154846 C5.37603956 0.14824922 8.13720968 0.23224587 10.8984375 0.31640625 C12.76821557 0.36962052 14.63800719 0.42236096 16.5078125 0.47460938 C21.09658007 0.60298076 25.68490229 0.74120783 30.2734375 0.87890625 C30.2734375 9.45890625 30.2734375 18.03890625 30.2734375 26.87890625 C24.3334375 26.87890625 18.3934375 26.87890625 12.2734375 26.87890625 C12.2734375 28.19890625 12.2734375 29.51890625 12.2734375 30.87890625 C13.9234375 30.87890625 15.5734375 30.87890625 17.2734375 30.87890625 C17.2734375 31.86890625 17.2734375 32.85890625 17.2734375 33.87890625 C12.3234375 33.87890625 7.3734375 33.87890625 2.2734375 33.87890625 C2.6034375 32.88890625 2.9334375 31.89890625 3.2734375 30.87890625 C4.5934375 30.87890625 5.9134375 30.87890625 7.2734375 30.87890625 C7.2734375 29.55890625 7.2734375 28.23890625 7.2734375 26.87890625 C1.3334375 26.87890625 -4.6065625 26.87890625 -10.7265625 26.87890625 C-10.7265625 18.29890625 -10.7265625 9.71890625 -10.7265625 0.87890625 C-7.38895019 -0.7898999 -3.65896727 -0.11737746 0 0 Z M7.2734375 8.87890625 C7.6034375 10.85890625 7.9334375 12.83890625 8.2734375 14.87890625 C10.2534375 14.87890625 12.2334375 14.87890625 14.2734375 14.87890625 C14.6034375 12.89890625 14.9334375 10.91890625 15.2734375 8.87890625 C12.6334375 8.87890625 9.9934375 8.87890625 7.2734375 8.87890625 Z " fill="#C37634" transform="translate(22.7265625,17.12109375)"/>
<path d="M0 0 C0.99 0.33 1.98 0.66 3 1 C3 8.92 3 16.84 3 25 C8.83378691 24.96047258 8.83378691 24.96047258 14.66748047 24.90991211 C15.75633545 24.90616577 15.75633545 24.90616577 16.8671875 24.90234375 C17.98262939 24.89448853 17.98262939 24.89448853 19.12060547 24.88647461 C21 25 21 25 23 26 C23 27.32 23 28.64 23 30 C24.65 30 26.3 30 28 30 C28 30.99 28 31.98 28 33 C23.05 33 18.1 33 13 33 C13.33 32.01 13.66 31.02 14 30 C15.32 30 16.64 30 18 30 C18 28.68 18 27.36 18 26 C12.06 26 6.12 26 0 26 C0 17.42 0 8.84 0 0 Z " fill="#BD814D" transform="translate(12,18)"/>
<path d="M0 0 C0.33 1.32 0.66 2.64 1 4 C-1.97 6.475 -1.97 6.475 -5 9 C-3.7508258 5.54074837 -2.32472205 2.85306797 0 0 Z " fill="#C99C75" transform="translate(9,11)"/>
</svg>
