<?xml version="1.0" encoding="UTF-8"?>
<svg version="1.1" xmlns="http://www.w3.org/2000/svg" width="68" height="100">
<path d="M0 0 C6.99965831 5.86766609 11.85574884 11.78699107 12.7265625 21.07421875 C13.26683996 31.11635705 11.82854099 39.9803306 5.6484375 48.23046875 C0.40687346 53.92886635 -6.58798252 57.72492331 -14.33203125 58.390625 C-25.32201201 58.83958498 -33.58020848 57.51377574 -42.1484375 49.9609375 C-49.62424395 42.14655286 -51.33744051 34.49173103 -51.29516602 23.95996094 C-51.01101635 15.11773178 -47.93077639 7.7185731 -41.4296875 1.58203125 C-29.05107254 -7.72251525 -12.88076035 -9.00919278 0 0 Z M-39.7421875 8.08203125 C-39.7421875 8.74203125 -39.7421875 9.40203125 -39.7421875 10.08203125 C-26.2121875 10.08203125 -12.6821875 10.08203125 1.2578125 10.08203125 C-3.66111247 3.93337504 -8.07839516 0.67966691 -16.00390625 -0.3359375 C-25.67339426 -0.57177867 -32.72332952 1.23864472 -39.7421875 8.08203125 Z M-40.7421875 10.08203125 C-45.52449779 17.64832931 -46.95708102 24.17652739 -45.7421875 33.08203125 C-44.78946054 36.36579574 -43.4997235 39.1569014 -41.7421875 42.08203125 C-41.2059375 42.98953125 -40.6696875 43.89703125 -40.1171875 44.83203125 C-33.38986609 51.20528311 -24.59032658 53.59682246 -15.5 53.48828125 C-8.11088901 52.39980031 -1.36119146 47.82664052 3.109375 41.921875 C7.05482277 35.60110663 8.12255791 29.47788011 7.2578125 22.08203125 C6.52700125 18.96202936 5.68607388 15.95820898 4.2578125 13.08203125 C3.5978125 12.75203125 2.9378125 12.42203125 2.2578125 12.08203125 C2.2578125 20.00203125 2.2578125 27.92203125 2.2578125 36.08203125 C-4.0121875 36.08203125 -10.2821875 36.08203125 -16.7421875 36.08203125 C-16.7421875 37.40203125 -16.7421875 38.72203125 -16.7421875 40.08203125 C-15.0921875 40.08203125 -13.4421875 40.08203125 -11.7421875 40.08203125 C-11.7421875 41.07203125 -11.7421875 42.06203125 -11.7421875 43.08203125 C-16.6921875 43.08203125 -21.6421875 43.08203125 -26.7421875 43.08203125 C-26.4121875 42.42203125 -26.0821875 41.76203125 -25.7421875 41.08203125 C-23.6796875 40.45703125 -23.6796875 40.45703125 -21.7421875 40.08203125 C-21.7421875 38.76203125 -21.7421875 37.44203125 -21.7421875 36.08203125 C-27.6821875 36.08203125 -33.6221875 36.08203125 -39.7421875 36.08203125 C-39.7421875 27.50203125 -39.7421875 18.92203125 -39.7421875 10.08203125 C-40.0721875 10.08203125 -40.4021875 10.08203125 -40.7421875 10.08203125 Z M-21.7421875 18.08203125 C-21.4121875 20.06203125 -21.0821875 22.04203125 -20.7421875 24.08203125 C-18.7621875 24.08203125 -16.7821875 24.08203125 -14.7421875 24.08203125 C-14.4121875 22.10203125 -14.0821875 20.12203125 -13.7421875 18.08203125 C-16.3821875 18.08203125 -19.0221875 18.08203125 -21.7421875 18.08203125 Z " fill="#B76D2D" transform="translate(51.7421875,24.91796875)"/>
<path d="M0 0 C0 0.66 0 1.32 0 2 C11.88 2 23.76 2 36 2 C36 9.92 36 17.84 36 26 C30.06 26 24.12 26 18 26 C18 27.98 18 29.96 18 32 C19.65 32 21.3 32 23 32 C23 32.33 23 32.66 23 33 C19.37 33 15.74 33 12 33 C12 32.67 12 32.34 12 32 C13.65 32 15.3 32 17 32 C17 30.02 17 28.04 17 26 C6.605 26.495 6.605 26.495 -4 27 C-4 18.42 -4 9.84 -4 1 C-2 0 -2 0 0 0 Z M14 9 C14.33 10.98 14.66 12.96 15 15 C16.98 15 18.96 15 21 15 C21.33 13.02 21.66 11.04 22 9 C19.36 9 16.72 9 14 9 Z " fill="#CA7932" transform="translate(16,34)"/>
<path d="M0 0 C18.81 0.495 18.81 0.495 38 1 C38 9.58 38 18.16 38 27 C31.73 27 25.46 27 19 27 C19 28.32 19 29.64 19 31 C20.65 31 22.3 31 24 31 C24 31.99 24 32.98 24 34 C19.05 34 14.1 34 9 34 C9.33 33.01 9.66 32.02 10 31 C11.32 31 12.64 31 14 31 C14 29.68 14 28.36 14 27 C8.72 27 3.44 27 -2 27 C-2 26.67 -2 26.34 -2 26 C4.27 26 10.54 26 17 26 C17 27.98 17 29.96 17 32 C17.33 32 17.66 32 18 32 C18 30.02 18 28.04 18 26 C23.94 26 29.88 26 36 26 C36 18.08 36 10.16 36 2 C24.12 2 12.24 2 0 2 C0 1.34 0 0.68 0 0 Z " fill="#965A25" transform="translate(16,34)"/>
<path d="M0 0 C0 0.66 0 1.32 0 2 C11.88 2 23.76 2 36 2 C36 2.33 36 2.66 36 3 C23.79 3 11.58 3 -1 3 C-1 10.59 -1 18.18 -1 26 C-1.99 26.33 -2.98 26.66 -4 27 C-4 18.42 -4 9.84 -4 1 C-2 0 -2 0 0 0 Z " fill="#BB6F2F" transform="translate(16,34)"/>
<path d="M0 0 C2.475 0.495 2.475 0.495 5 1 C5 1.66 5 2.32 5 3 C7.97 3 10.94 3 14 3 C14.125 9.625 14.125 9.625 13 13 C10.36 13 7.72 13 5 13 C3.80712589 9.12315913 3 6.08378077 3 2 C2.01 2 1.02 2 0 2 C0 1.34 0 0.68 0 0 Z M5 4 C5.33 5.98 5.66 7.96 6 10 C7.98 10 9.96 10 12 10 C12.33 8.02 12.66 6.04 13 4 C10.36 4 7.72 4 5 4 Z " fill="#7E4C1E" transform="translate(25,39)"/>
<path d="M0 0 C2.64 0.33 5.28 0.66 8 1 C8.33 1.99 8.66 2.98 9 4 C6.36 4 3.72 4 1 4 C0.67 2.68 0.34 1.36 0 0 Z " fill="#935925" transform="translate(29,48)"/>
</svg>
